<?xml version="1.0" standalone="no"?>
<!DOCTYPE svg PUBLIC "-//W3C//DTD SVG 20010904//EN"
 "http://www.w3.org/TR/2001/REC-SVG-20010904/DTD/svg10.dtd">
<svg version="1.0" xmlns="http://www.w3.org/2000/svg"
 width="1500.000000pt" height="1500.000000pt" viewBox="0 0 1500.000000 1500.000000"
 preserveAspectRatio="xMidYMid meet">

<g transform="translate(0.000000,1500.000000) scale(0.100000,-0.100000)"
fill="#000000" stroke="none">
<path d="M0 7500 l0 -7500 7500 0 7500 0 0 7500 0 7500 -7500 0 -7500 0 0
-7500z m6875 2880 l0 -65 -77 -3 -78 -3 -2 -172 -3 -172 -65 2 c-36 1 -68 2
-72 2 -5 1 -8 77 -8 171 l0 169 -72 3 -73 3 -3 68 -3 67 228 -2 228 -3 0 -65z
m430 58 c37 -16 55 -57 55 -121 0 -39 -6 -61 -20 -79 -19 -25 -19 -26 0 -43
17 -15 20 -31 20 -100 0 -74 -2 -84 -25 -105 -22 -21 -38 -24 -115 -28 -49 -2
-128 -1 -176 3 -75 6 -90 10 -110 32 -20 21 -24 37 -24 85 l0 59 68 -3 c63 -3
67 -5 71 -28 4 -34 16 -40 83 -40 79 0 88 5 88 51 l0 38 -57 3 -58 3 0 45 0
45 50 5 c50 5 50 5 50 40 0 35 0 35 -49 38 -69 4 -93 -3 -100 -33 -6 -25 -9
-26 -74 -23 l-67 3 1 53 c2 55 20 86 59 103 32 13 300 11 330 -3z m522 -123
c1 -71 2 -136 3 -142 0 -9 16 -13 45 -13 l45 0 0 -49 c0 -53 -8 -61 -61 -61
-27 0 -29 -3 -29 -39 0 -39 -1 -40 -42 -45 -81 -10 -93 -5 -96 42 l-3 41 -137
3 -137 3 -3 45 c-3 44 0 48 99 165 173 206 148 186 237 183 l77 -3 2 -130z
m301 73 c22 -35 56 -89 77 -122 28 -45 39 -56 48 -47 7 7 41 60 77 119 l66
107 59 0 60 0 0 -239 0 -239 -44 -4 c-90 -9 -91 -8 -91 120 l0 112 -50 -77
c-48 -76 -51 -78 -90 -78 -30 0 -42 5 -51 22 -7 12 -28 47 -48 78 l-36 55 -5
-115 -5 -115 -55 -1 c-30 -1 -61 1 -67 3 -10 4 -13 61 -13 237 0 128 3 236 7
239 3 4 32 7 63 7 l58 0 40 -62z m-3190 -2153 l2 -891 58 -17 c32 -9 65 -17
74 -17 9 0 20 -4 23 -10 3 -5 16 -10 28 -10 12 0 51 -9 87 -20 162 -50 309
-92 355 -102 28 -5 55 -13 60 -18 6 -4 28 -11 50 -14 41 -8 128 -33 155 -46 9
-4 35 -11 58 -15 23 -4 44 -11 48 -16 3 -5 15 -9 27 -9 23 0 112 -23 252 -66
44 -13 121 -36 170 -50 50 -14 103 -30 120 -35 16 -5 38 -9 47 -9 17 0 18 58
18 1114 0 1006 2 1114 16 1120 21 8 3938 8 3958 0 15 -6 16 -91 16 -930 l-1
-924 -880 0 c-483 0 -879 -3 -879 -7 0 -5 60 -30 133 -57 72 -27 146 -55 162
-61 17 -7 66 -27 110 -44 44 -18 89 -36 100 -40 11 -5 47 -18 80 -31 33 -12
69 -26 80 -31 11 -5 52 -20 90 -35 74 -27 160 -60 260 -99 33 -12 85 -32 115
-43 144 -53 226 -86 234 -94 6 -4 16 -8 24 -8 8 0 28 -6 45 -13 55 -24 142
-58 152 -61 21 -6 53 -19 135 -55 36 -16 364 -139 435 -163 33 -11 64 -24 69
-29 6 -5 17 -9 26 -9 9 0 25 -6 35 -14 19 -14 19 -15 2 -33 -21 -24 -22 -33 0
-33 14 0 13 -3 -5 -21 -12 -11 -27 -17 -32 -14 -6 4 -9 1 -8 -7 2 -9 -7 -12
-27 -11 -22 2 -26 0 -15 -7 12 -8 10 -14 -15 -35 -16 -13 -35 -29 -42 -35 -7
-5 -15 -10 -18 -10 -3 0 -33 -22 -66 -50 -33 -27 -64 -50 -69 -50 -5 0 -20
-10 -33 -22 -31 -29 -68 -59 -97 -78 -21 -14 -180 -137 -207 -160 -19 -16 -34
-13 -135 26 -51 20 -97 37 -103 38 -5 2 -23 8 -38 14 -16 7 -32 12 -37 12 -5
0 -18 12 -29 28 -12 15 -18 19 -15 10 3 -10 5 -18 3 -18 -4 0 -122 42 -154 55
-11 5 -42 17 -70 27 -27 10 -59 23 -70 28 -11 5 -49 19 -85 31 -36 12 -79 28
-97 35 -17 8 -36 14 -42 14 -6 0 -19 4 -29 9 -41 22 -84 40 -114 46 -18 4 -37
11 -43 15 -5 3 -57 24 -115 45 -58 21 -109 42 -114 47 -6 4 -16 8 -24 8 -8 0
-28 6 -45 14 -18 7 -61 24 -97 36 -36 13 -69 28 -75 33 -7 7 -3 7 10 3 41 -16
128 -36 132 -32 5 5 -64 26 -84 26 -7 0 -13 3 -13 8 0 4 -16 12 -35 18 -19 6
-32 7 -29 2 7 -10 -49 -11 -62 0 -5 4 -43 19 -84 32 -41 14 -77 28 -80 31 -3
4 -19 10 -37 13 -17 4 -37 14 -43 22 -7 7 -16 11 -21 8 -5 -3 -23 1 -41 9 -18
8 -62 25 -98 37 -36 13 -69 27 -75 30 -5 4 -24 11 -42 14 -17 4 -37 14 -44 22
-6 8 -24 14 -40 14 -15 0 -31 5 -34 10 -3 6 -14 10 -23 10 -9 0 -29 6 -44 14
-15 8 -40 17 -57 21 -17 4 -33 11 -36 16 -4 5 -13 9 -22 9 -8 0 -29 6 -46 14
-18 7 -97 38 -177 67 -80 29 -151 59 -158 66 -7 7 -20 13 -28 13 -8 0 -32 5
-53 12 -31 10 -41 18 -45 41 -3 16 -6 279 -6 583 l0 554 1165 0 1165 0 0 155
c0 117 -3 155 -12 155 -7 0 -566 0 -1243 1 -676 0 -1239 4 -1250 9 -12 5 85 9
245 11 146 1 245 5 220 9 l-45 6 40 5 c22 2 -69 5 -202 7 -165 2 -243 0 -243
-8 0 -5 -7 -10 -15 -10 -8 0 -15 5 -15 10 0 6 -4 10 -9 10 -5 0 -11 -17 -14
-37 -4 -21 -7 -447 -8 -948 -1 -500 -4 -1071 -7 -1268 l-5 -357 -36 6 c-20 4
-43 12 -51 19 -8 7 -20 11 -26 8 -5 -2 -39 6 -73 17 -35 11 -70 20 -77 20 -7
0 -16 5 -20 11 -5 8 0 10 17 6 13 -3 30 -2 38 2 10 6 5 11 -17 16 -18 3 -37 3
-43 -1 -20 -12 -70 -6 -88 10 -10 9 -20 14 -23 11 -3 -3 -25 1 -49 9 -24 8
-60 17 -79 21 -19 4 -39 11 -45 15 -5 4 -26 11 -45 14 -19 4 -44 11 -55 16
-34 15 -198 67 -235 75 -46 9 -152 45 -165 55 -5 4 -23 10 -40 13 -16 3 -55
12 -85 20 -30 9 -75 21 -100 28 -25 6 -52 15 -60 19 -8 4 -49 17 -90 29 -41
12 -84 26 -95 30 -11 5 -56 19 -100 31 -44 12 -97 29 -118 36 -20 8 -46 14
-57 14 -11 0 -20 4 -20 9 0 5 -19 12 -42 16 -23 4 -49 11 -58 16 -18 9 -102
34 -148 44 -41 8 -84 30 -76 38 3 3 17 2 31 -4 31 -12 46 -12 38 0 -3 5 -20
13 -38 16 -17 4 -36 11 -42 15 -12 9 -98 30 -117 29 -7 0 0 -7 17 -14 16 -7
36 -10 44 -7 9 3 12 1 7 -6 -15 -25 -104 -2 -102 26 1 19 -60 43 -84 33 -11
-4 -8 -7 10 -9 23 -4 74 -32 57 -32 -5 0 -31 7 -59 17 -44 14 -49 18 -34 28
15 11 14 13 -11 20 -15 3 -28 5 -29 3 0 -2 -8 3 -17 10 -9 8 -25 10 -43 6 -21
-6 -25 -4 -19 7 5 8 5 11 0 7 -4 -4 -13 -4 -20 2 -10 8 -118 40 -137 40 -20 0
-6 -20 15 -21 12 0 17 -3 11 -5 -6 -3 -29 0 -50 5 -49 12 -164 46 -184 53 -8
4 -39 14 -67 24 -50 17 -68 33 -40 35 10 0 10 2 0 6 -10 4 -13 174 -13 803 0
522 -3 801 -10 805 -6 3 -10 15 -10 26 0 19 -17 19 -1262 17 -996 -2 -1262 -6
-1265 -15 -4 -10 255 -13 1259 -16 l1263 -2 -1267 -3 -1267 -2 -3 -147 c-2
-82 -2 -151 0 -155 2 -5 480 -8 1063 -8 620 0 1059 -4 1059 -9 0 -5 -22 -17
-50 -27 -64 -23 -64 -38 0 -32 28 3 48 3 46 0 -7 -6 -164 -62 -196 -69 -14 -3
-21 -2 -17 3 5 5 12 9 15 10 20 2 64 25 59 31 -3 3 -14 2 -24 -3 -10 -4 -22
-9 -28 -10 -42 -8 -55 -17 -44 -30 8 -10 1 -17 -35 -33 -25 -12 -50 -21 -56
-21 -7 0 -26 -6 -43 -14 -18 -8 -59 -22 -91 -31 -32 -9 -69 -23 -82 -32 -15
-9 -34 -13 -49 -9 -19 5 -23 3 -19 -8 4 -11 -3 -17 -23 -21 -15 -4 -43 -13
-60 -20 -25 -11 -39 -12 -57 -4 -18 9 -30 7 -54 -5 -17 -9 -35 -16 -41 -16 -5
0 -22 -5 -38 -12 -15 -6 -31 -12 -35 -12 -9 -1 -11 -15 -3 -17 6 -1 54 16 90
32 46 20 73 27 79 21 7 -6 -128 -62 -151 -62 -6 0 -13 -6 -15 -12 -3 -8 -23
-13 -51 -13 -26 0 -42 -1 -37 -3 6 -2 10 -9 10 -14 0 -6 -3 -9 -6 -6 -3 4 -21
0 -39 -8 -44 -18 -56 -18 -49 1 8 19 -4 19 -36 -1 -24 -14 -24 -15 -2 -11 12
3 22 2 22 -3 0 -10 -59 -22 -72 -14 -15 10 -58 -5 -53 -19 8 -22 -8 -32 -93
-60 -91 -29 -106 -32 -97 -17 3 6 16 10 28 10 17 0 19 2 7 10 -8 5 -19 5 -25
1 -5 -5 -35 -16 -65 -26 -30 -10 -60 -22 -66 -26 -6 -5 -13 -6 -16 -3 -3 3 -9
1 -13 -5 -8 -13 27 -15 40 -2 6 5 26 12 45 15 l35 7 -37 -20 c-55 -28 -128
-51 -152 -47 -11 2 -15 1 -8 -1 19 -7 14 -23 -8 -23 -10 0 -42 -9 -70 -20 -28
-11 -56 -17 -62 -14 -6 4 9 15 33 25 24 10 40 18 34 19 -12 0 -138 -42 -145
-50 -3 -3 -14 -7 -25 -9 -24 -4 -58 -21 -53 -26 4 -4 73 12 126 29 12 4 22 3
22 -2 0 -5 -19 -13 -42 -19 -24 -6 -58 -17 -77 -24 -25 -10 -35 -11 -38 -3 -3
8 -16 9 -41 3 -39 -8 -106 -39 -100 -45 5 -4 75 20 84 29 11 11 54 8 54 -3 0
-5 -8 -10 -17 -10 -17 0 -65 -14 -115 -34 l-28 -11 0 -525 c0 -599 -1 -603
-66 -628 -21 -9 -42 -20 -45 -25 -4 -6 -19 -5 -39 2 -42 14 -53 14 -44 0 5 -9
-1 -10 -22 -5 -21 5 -25 4 -14 -4 8 -5 31 -7 50 -4 l35 6 -29 -16 c-15 -9 -33
-16 -40 -16 -6 -1 -29 -9 -51 -20 -22 -11 -47 -19 -55 -20 -9 0 -20 -4 -25 -9
-16 -14 -55 -23 -55 -12 0 5 9 13 21 16 11 4 18 9 16 11 -9 10 -55 -19 -50
-31 2 -8 -5 -16 -19 -20 -13 -3 -32 -10 -43 -15 -11 -5 -48 -21 -82 -36 -34
-14 -69 -24 -78 -20 -9 3 -13 2 -10 -3 6 -11 -1 -16 -37 -25 -22 -5 -26 -3
-22 9 4 8 2 21 -4 28 -17 20 -17 3274 0 3280 7 3 902 5 1988 4 l1975 -2 3
-890z m6315 583 l237 -159 0 -344 0 -345 815 0 814 0 1 452 c0 347 3 454 13
460 17 11 669 10 686 -1 12 -8 13 -232 8 -1517 -3 -830 -8 -1518 -10 -1529 -4
-20 -13 -20 -675 -23 -480 -2 -672 1 -672 8 0 6 4 9 9 5 5 -3 16 2 24 10 19
19 28 19 21 1 -5 -12 17 -14 138 -12 106 1 142 5 141 14 -2 9 63 11 285 10
258 -2 266 -3 80 -5 -115 -2 -208 -7 -208 -11 0 -4 184 -6 410 -4 376 2 410 4
410 19 0 13 -3 14 -12 5 -8 -8 -41 -11 -92 -10 l-81 2 85 6 c47 3 -195 7 -536
8 -596 2 -688 5 -682 23 2 4 116 82 253 173 138 90 268 178 291 195 23 17 45
31 51 31 5 0 25 15 44 33 32 29 35 37 34 87 -1 30 -2 238 -3 463 l-2 407
-1169 0 -1168 0 -7 38 c-7 45 -8 1806 -1 1814 3 3 56 -28 118 -70 62 -41 219
-147 350 -234z m-8643 -1256 c0 -13 -12 -22 -22 -16 -10 6 -1 24 13 24 5 0 9
-4 9 -8z m2154 -978 c54 -14 77 -30 31 -21 -67 13 -125 31 -125 39 0 5 10 6
23 2 12 -4 44 -13 71 -20z m341 -104 c-3 -5 -12 -10 -20 -10 -8 0 -17 5 -20
10 -4 6 5 10 20 10 15 0 24 -4 20 -10z m8408 -637 c-13 -2 -35 -2 -50 0 -16 2
-5 4 22 4 28 0 40 -2 28 -4z"/>
<path d="M7628 10248 c-32 -36 -58 -70 -58 -77 0 -17 109 -15 116 3 3 7 4 42
2 77 l-3 63 -57 -66z"/>
<path d="M9605 8400 c-2 -3 -107 -5 -235 -5 -127 0 -237 -3 -243 -7 -7 -4 135
-8 315 -8 290 0 327 2 321 15 -4 13 -20 15 -80 13 -41 -2 -76 -5 -78 -8z"/>
<path d="M8007 8388 c-7 -4 26 -8 72 -8 46 0 81 3 77 7 -10 10 -134 11 -149 1z"/>
<path d="M9798 8383 c7 -3 16 -2 19 1 4 3 -2 6 -13 5 -11 0 -14 -3 -6 -6z"/>
<path d="M3510 7920 c0 -5 5 -10 10 -10 6 0 10 5 10 10 0 6 -4 10 -10 10 -5 0
-10 -4 -10 -10z"/>
<path d="M3445 7894 c-19 -15 -19 -15 10 -8 37 8 57 24 30 24 -11 0 -29 -8
-40 -16z"/>
<path d="M3338 7857 c-21 -6 -38 -15 -38 -20 0 -5 8 -6 18 -2 9 4 29 10 45 13
15 2 30 8 33 13 6 11 -9 10 -58 -4z"/>
<path d="M3210 7810 c-13 -9 -13 -10 0 -9 8 0 24 4 35 9 l20 9 -20 0 c-11 0
-27 -4 -35 -9z"/>
<path d="M3138 7773 c7 -3 16 -2 19 1 4 3 -2 6 -13 5 -11 0 -14 -3 -6 -6z"/>
<path d="M3065 7750 c-3 -5 1 -10 9 -10 8 0 18 5 21 10 3 6 -1 10 -9 10 -8 0
-18 -4 -21 -10z"/>
<path d="M2830 7660 c0 -5 7 -10 16 -10 8 0 12 5 9 10 -3 6 -10 10 -16 10 -5
0 -9 -4 -9 -10z"/>
<path d="M2733 7633 c-7 -2 -13 -8 -13 -13 0 -10 38 -1 46 11 6 10 -13 11 -33
2z"/>
<path d="M2530 7550 c8 -5 20 -10 25 -10 6 0 3 5 -5 10 -8 5 -19 10 -25 10 -5
0 -3 -5 5 -10z"/>
<path d="M2495 7530 c3 -5 8 -10 11 -10 2 0 4 5 4 10 0 6 -5 10 -11 10 -5 0
-7 -4 -4 -10z"/>
<path d="M2438 7513 c6 -2 18 -2 25 0 6 3 1 5 -13 5 -14 0 -19 -2 -12 -5z"/>
<path d="M2185 7420 c-3 -5 -2 -10 4 -10 5 0 13 5 16 10 3 6 2 10 -4 10 -5 0
-13 -4 -16 -10z"/>
<path d="M8760 7301 c0 -5 11 -11 25 -13 20 -4 23 -3 14 8 -13 16 -39 19 -39
5z"/>
<path d="M8860 7300 c31 -10 106 -12 97 -3 -4 3 -33 7 -64 8 -39 1 -50 0 -33
-5z"/>
<path d="M10401 7306 c2 -2 31 -6 64 -9 37 -3 51 -2 35 3 -25 8 -107 13 -99 6z"/>
<path d="M9858 7293 c56 -2 148 -2 205 0 56 1 10 3 -103 3 -113 0 -159 -2
-102 -3z"/>
<path d="M7575 6890 c3 -5 13 -10 21 -10 8 0 12 5 9 10 -3 6 -13 10 -21 10 -8
0 -12 -4 -9 -10z"/>
<path d="M7700 6840 c0 -5 7 -10 15 -10 8 0 15 5 15 10 0 6 -7 10 -15 10 -8 0
-15 -4 -15 -10z"/>
<path d="M4270 6740 c0 -5 11 -10 25 -10 14 0 25 -6 25 -12 0 -9 3 -8 10 2 7
11 5 17 -8 22 -26 10 -52 9 -52 -2z"/>
<path d="M7988 6733 c7 -3 16 -2 19 1 4 3 -2 6 -13 5 -11 0 -14 -3 -6 -6z"/>
<path d="M4350 6720 c0 -13 20 -13 40 0 12 8 9 10 -12 10 -16 0 -28 -4 -28
-10z"/>
<path d="M4397 6703 c-3 -5 6 -10 21 -11 15 -1 36 -6 47 -11 36 -17 85 -30 85
-23 0 7 -82 38 -126 49 -12 3 -24 1 -27 -4z"/>
<path d="M8121 6686 c2 -2 15 -9 29 -15 24 -11 24 -11 6 3 -16 13 -49 24 -35
12z"/>
<path d="M1023 6490 c0 -103 3 -172 7 -155 4 17 8 25 9 20 0 -6 28 -19 61 -29
48 -16 76 -18 150 -13 49 4 106 13 126 22 19 8 59 17 87 21 72 9 86 22 47 45
-29 18 -40 39 -20 39 6 0 10 16 10 36 0 23 6 42 18 50 16 12 14 15 -17 48 -38
39 -56 45 -65 21 -3 -9 -19 -15 -41 -15 -31 0 -35 -3 -35 -25 0 -23 -4 -25
-47 -26 -27 -1 -78 -2 -115 -3 l-68 -2 -1 41 -2 40 -6 -40 c-5 -36 -9 -40 -38
-43 -31 -3 -32 -2 -36 40 -3 37 -4 33 -7 -22 -4 -61 -4 -59 -10 35 -5 83 -6
68 -7 -85z"/>
<path d="M8240 6640 c0 -5 7 -10 16 -10 8 0 12 5 9 10 -3 6 -10 10 -16 10 -5
0 -9 -4 -9 -10z"/>
<path d="M8285 6620 c3 -5 13 -10 21 -10 8 0 14 5 14 10 0 6 -9 10 -21 10 -11
0 -17 -4 -14 -10z"/>
<path d="M8552 6518 c2 -6 11 -13 19 -16 12 -3 12 -2 0 6 -11 8 -11 10 0 15
10 4 8 6 -4 6 -10 1 -17 -4 -15 -11z"/>
<path d="M1520 6510 c0 -5 5 -10 10 -10 6 0 10 5 10 10 0 6 -4 10 -10 10 -5 0
-10 -4 -10 -10z"/>
<path d="M8595 6510 c-3 -5 -2 -10 4 -10 5 0 18 -3 28 -7 16 -6 16 -5 4 10
-15 19 -27 22 -36 7z"/>
<path d="M8665 6480 c3 -5 14 -10 23 -10 15 0 15 2 2 10 -20 13 -33 13 -25 0z"/>
<path d="M993 6415 c0 -33 2 -45 4 -27 2 18 2 45 0 60 -2 15 -4 0 -4 -33z"/>
<path d="M5245 6440 c26 -11 45 -12 45 -2 0 4 -15 8 -33 9 -26 1 -28 0 -12 -7z"/>
<path d="M8768 6433 c6 -2 18 -2 25 0 6 3 1 5 -13 5 -14 0 -19 -2 -12 -5z"/>
<path d="M9942 6428 c7 -19 38 -22 38 -4 0 10 -9 16 -21 16 -12 0 -19 -5 -17
-12z"/>
<path d="M5315 6420 c3 -5 10 -10 16 -10 5 0 9 5 9 10 0 6 -7 10 -16 10 -8 0
-12 -4 -9 -10z"/>
<path d="M5360 6408 c0 -4 6 -8 13 -8 6 0 23 -3 36 -7 16 -4 22 -2 18 4 -8 13
-67 23 -67 11z"/>
<path d="M8850 6410 c8 -5 22 -10 30 -10 13 0 13 1 0 10 -8 5 -22 10 -30 10
-13 0 -13 -1 0 -10z"/>
<path d="M9210 6400 c0 -5 9 -10 20 -10 11 0 20 5 20 10 0 6 -9 10 -20 10 -11
0 -20 -4 -20 -10z"/>
<path d="M9280 6390 c0 -5 5 -10 11 -10 5 0 7 5 4 10 -3 6 -8 10 -11 10 -2 0
-4 -4 -4 -10z"/>
<path d="M5440 6382 c0 -4 18 -13 40 -19 22 -5 40 -6 40 -2 0 5 -9 9 -19 9
-11 0 -23 5 -26 10 -7 12 -35 13 -35 2z"/>
<path d="M9245 6360 c-18 -8 -17 -9 8 -9 15 -1 27 4 27 9 0 12 -8 12 -35 0z"/>
<path d="M9310 6359 c0 -6 7 -8 16 -5 9 3 12 2 9 -4 -7 -11 53 -40 80 -40 9 0
23 -7 31 -15 9 -8 24 -15 34 -15 10 0 20 -7 22 -16 2 -11 16 -17 39 -20 55 -4
63 -8 72 -28 5 -12 14 -17 27 -13 10 3 20 1 22 -4 5 -14 104 -40 163 -43 45
-3 66 -12 158 -63 12 -7 39 -13 60 -13 30 0 37 -4 37 -20 0 -16 7 -20 38 -20
21 0 43 -5 50 -12 7 -7 12 -9 12 -5 0 12 70 -21 102 -48 16 -14 34 -23 39 -20
5 3 27 0 49 -6 32 -10 45 -10 64 1 14 7 31 10 39 7 9 -3 26 6 41 24 14 16 34
29 44 29 10 0 28 7 40 16 13 9 30 13 38 10 8 -3 13 -2 9 3 -5 9 22 30 70 57
24 13 35 70 12 61 -9 -3 -18 1 -21 9 -3 9 -1 12 4 9 6 -3 10 -2 10 4 0 5 -9
12 -20 16 -16 5 -17 10 -8 30 11 25 4 75 -12 75 -5 0 -13 -15 -18 -32 -8 -31
-11 -33 -48 -29 -21 1 -42 8 -46 14 -5 8 -8 8 -8 -2 0 -8 -3 -11 -7 -8 -8 9
-43 -22 -43 -38 0 -16 -30 -24 -55 -14 -11 4 -56 8 -100 8 -44 1 -131 8 -193
16 -122 16 -137 13 -201 -36 -34 -27 -41 -24 -41 15 0 33 -2 35 -50 45 -28 6
-64 11 -79 11 -15 0 -36 9 -46 20 -21 23 -50 19 -75 -13 -17 -20 -40 -17 -40
7 0 12 -56 30 -170 56 -30 7 -72 21 -92 31 -43 22 -58 24 -58 8z m1313 -174
c-3 -17 -30 -17 -37 0 -4 13 -1 16 17 13 12 -2 21 -7 20 -13z"/>
<path d="M5545 6350 c11 -5 29 -8 40 -8 16 0 15 2 -5 8 -34 11 -60 11 -35 0z"/>
<path d="M9745 6320 c-3 -5 -1 -10 4 -10 6 0 11 5 11 10 0 6 -2 10 -4 10 -3 0
-8 -4 -11 -10z"/>
<path d="M5658 6313 c7 -3 16 -2 19 1 4 3 -2 6 -13 5 -11 0 -14 -3 -6 -6z"/>
<path d="M9103 6313 c9 -2 23 -2 30 0 6 3 -1 5 -18 5 -16 0 -22 -2 -12 -5z"/>
<path d="M1095 6290 c-3 -5 1 -10 9 -10 9 0 16 5 16 10 0 6 -4 10 -9 10 -6 0
-13 -4 -16 -10z"/>
<path d="M9388 6273 c7 -3 16 -2 19 1 4 3 -2 6 -13 5 -11 0 -14 -3 -6 -6z"/>
<path d="M5858 6253 c7 -3 16 -2 19 1 4 3 -2 6 -13 5 -11 0 -14 -3 -6 -6z"/>
<path d="M5915 6240 c-3 -6 1 -7 9 -4 18 7 21 14 7 14 -6 0 -13 -4 -16 -10z"/>
<path d="M5978 6223 c7 -3 16 -2 19 1 4 3 -2 6 -13 5 -11 0 -14 -3 -6 -6z"/>
<path d="M1170 6201 c-8 -6 -17 -8 -21 -6 -3 3 -12 -7 -19 -20 -8 -16 -22 -25
-37 -25 -18 0 -25 -7 -29 -30 -4 -16 -10 -30 -15 -30 -5 0 -9 -31 -9 -68 l0
-69 33 4 c24 3 28 2 17 -6 -21 -15 -5 -25 27 -16 25 7 26 8 8 15 -18 7 -18 9
8 19 16 6 40 11 55 11 37 0 172 33 172 43 0 4 -11 12 -25 17 -20 8 -25 16 -25
45 0 19 4 35 10 35 16 0 0 29 -20 35 -10 3 -20 15 -23 25 -4 14 -14 20 -35 20
-17 0 -36 2 -44 5 -7 3 -20 1 -28 -4z m90 -179 c0 -8 -43 -32 -55 -32 -3 0 -5
9 -5 20 0 16 7 20 30 20 17 0 30 -4 30 -8z"/>
<path d="M6083 6183 c9 -2 23 -2 30 0 6 3 -1 5 -18 5 -16 0 -22 -2 -12 -5z"/>
<path d="M6140 6170 c0 -5 10 -10 23 -10 18 0 19 2 7 10 -19 13 -30 13 -30 0z"/>
<path d="M9638 6173 c7 -3 16 -2 19 1 4 3 -2 6 -13 5 -11 0 -14 -3 -6 -6z"/>
<path d="M6195 6152 c14 -15 40 -19 43 -7 1 6 -10 11 -25 13 -19 2 -25 0 -18
-6z"/>
<path d="M6268 6123 c7 -3 16 -2 19 1 4 3 -2 6 -13 5 -11 0 -14 -3 -6 -6z"/>
<path d="M6311 6121 c-12 -8 -8 -11 15 -16 16 -4 39 -10 52 -15 14 -6 22 -6
22 0 0 5 -18 13 -40 16 -22 4 -37 10 -34 15 7 11 3 11 -15 0z"/>
<path d="M1630 6090 c0 -5 -8 -10 -19 -10 -10 0 -24 -6 -31 -14 -6 -8 -19 -17
-28 -19 -9 -2 -4 -3 13 -1 16 3 31 8 35 12 3 5 13 11 23 15 15 6 25 27 12 27
-3 0 -5 -4 -5 -10z"/>
<path d="M1024 6005 c0 -49 1 -71 3 -48 2 23 2 64 0 90 -2 26 -3 8 -3 -42z"/>
<path d="M6458 6073 c7 -3 16 -2 19 1 4 3 -2 6 -13 5 -11 0 -14 -3 -6 -6z"/>
<path d="M6505 6050 c3 -5 13 -10 21 -10 8 0 14 5 14 10 0 6 -9 10 -21 10 -11
0 -17 -4 -14 -10z"/>
<path d="M6555 6040 c-4 -6 3 -10 14 -10 25 0 27 6 6 13 -8 4 -17 2 -20 -3z"/>
<path d="M1378 6033 c7 -3 16 -2 19 1 4 3 -2 6 -13 5 -11 0 -14 -3 -6 -6z"/>
<path d="M6612 6027 c9 -10 26 -17 37 -17 11 0 22 -4 25 -9 3 -5 18 -11 33
-13 16 -3 36 -9 46 -13 9 -4 17 -3 17 2 0 4 -33 19 -72 32 -40 12 -80 25 -88
29 -11 4 -11 1 2 -11z"/>
<path d="M1377 5993 c-16 -8 -26 -17 -24 -20 8 -7 77 19 77 29 0 12 -21 8 -53
-9z"/>
<path d="M9938 6003 c7 -3 16 -2 19 1 4 3 -2 6 -13 5 -11 0 -14 -3 -6 -6z"/>
<path d="M6830 5953 c14 -3 31 -10 39 -16 11 -10 13 -9 9 3 -3 9 -18 16 -39
17 -24 1 -26 0 -9 -4z"/>
<path d="M6890 5942 c0 -11 67 -32 75 -24 3 3 -9 12 -26 19 -36 15 -49 16 -49
5z"/>
<path d="M1201 5925 c-26 -8 -31 -14 -21 -20 9 -5 15 -4 18 3 2 7 7 10 11 8 8
-5 38 11 31 17 -3 2 -21 -1 -39 -8z"/>
<path d="M10278 5933 c7 -3 16 -2 19 1 4 3 -2 6 -13 5 -11 0 -14 -3 -6 -6z"/>
<path d="M10148 5923 c6 -2 18 -2 25 0 6 3 1 5 -13 5 -14 0 -19 -2 -12 -5z"/>
<path d="M1075 5870 c3 -5 16 -10 28 -9 21 0 21 1 2 9 -28 12 -37 12 -30 0z"/>
<path d="M10260 5876 c0 -2 11 -6 25 -8 13 -3 22 -1 19 3 -5 9 -44 13 -44 5z"/>
<path d="M990 5830 c0 -5 5 -10 10 -10 6 0 10 5 10 10 0 6 -4 10 -10 10 -5 0
-10 -4 -10 -10z"/>
<path d="M7213 5833 c9 -2 23 -2 30 0 6 3 -1 5 -18 5 -16 0 -22 -2 -12 -5z"/>
<path d="M10420 5830 c0 -5 5 -10 10 -10 6 0 10 5 10 10 0 6 -4 10 -10 10 -5
0 -10 -4 -10 -10z"/>
<path d="M11075 7300 c-71 -3 170 -7 536 -8 366 -1 693 -4 725 -6 49 -3 52 -2
19 4 -22 4 142 5 364 2 304 -4 402 -2 397 6 -5 9 -247 11 -959 9 -524 -1
-1010 -4 -1082 -7z"/>
<path d="M10848 7293 c6 -2 18 -2 25 0 6 3 1 5 -13 5 -14 0 -19 -2 -12 -5z"/>
<path d="M13280 6459 c0 -5 5 -7 10 -4 6 3 10 8 10 11 0 2 -4 4 -10 4 -5 0
-10 -5 -10 -11z"/>
<path d="M13540 6279 c-14 -4 -18 -7 -10 -8 29 -2 -9 -25 -42 -25 -24 -1 -36
-7 -43 -23 -5 -13 -14 -23 -20 -23 -5 0 -23 -13 -38 -30 -16 -16 -26 -30 -22
-30 8 0 69 31 75 39 13 16 61 41 80 41 32 0 60 18 60 40 0 24 -9 29 -40 19z"/>
<path d="M13792 5850 c0 -14 2 -19 5 -12 2 6 2 18 0 25 -3 6 -5 1 -5 -13z"/>
<path d="M12888 5833 c6 -2 18 -2 25 0 6 3 1 5 -13 5 -14 0 -19 -2 -12 -5z"/>
</g>
</svg>
